<svg width="30" height="30" viewBox="0 0 24 24" fill="none" xmlns="http://www.w3.org/2000/svg">
<path fill-rule="evenodd" clip-rule="evenodd" d="M7.04973 11.0503C6.65923 11.4408 6.65918 12.074 7.04973 12.4645L11.2924 16.7071C11.3936 16.8084 11.5111 16.8834 11.6365 16.9321C11.749 16.976 11.8715 17 11.9995 17C12.1416 17 12.2767 16.9704 12.3991 16.917C12.4918 16.8766 12.5797 16.8215 12.6591 16.7517C12.6772 16.7358 12.6947 16.7193 12.7116 16.7021L16.9492 12.4645C17.3397 12.074 17.3398 11.4408 16.9492 11.0503C16.5587 10.6597 15.9255 10.6598 15.535 11.0503L12.9995 13.5858V4.00003C12.9995 3.44775 12.5518 3.00003 11.9995 3.00003C11.4472 3.00003 10.9995 3.44775 10.9995 4.00003V13.5859L8.46394 11.0503C8.0734 10.6597 7.44022 10.6598 7.04973 11.0503ZM3 19C2.44772 19 2 19.4477 2 20C2 20.5523 2.44772 21 3 21H21C21.5523 21 22 20.5523 22 20C22 19.4477 21.5523 19 21 19H3Z" fill="#646464"/>
</svg>
