<svg width="21" height="18" viewBox="0 0 21 18" fill="none" xmlns="http://www.w3.org/2000/svg">
<path d="M10.5 0C9.94769 0 9.5 0.447708 9.5 1C9.5 1.55228 9.05229 2 8.5 2H1.5C0.947693 2 0.5 2.44771 0.5 3C0.5 3.55229 0.947693 4 1.5 4H8.5C9.05229 4 9.5 4.44772 9.5 5C9.5 5.55229 9.94769 6 10.5 6C11.0523 6 11.5 5.55229 11.5 5V1C11.5 0.447708 11.0523 0 10.5 0Z" fill="#F46161"/>
<path d="M14.5 7C14.5 6.44771 14.9477 6 15.5 6C16.0523 6 16.5 6.44771 16.5 7V11C16.5 11.5523 16.0523 12 15.5 12C14.9477 12 14.5 11.5523 14.5 11C14.5 10.4477 14.0523 10 13.5 10H1.5C0.947693 10 0.5 9.55229 0.5 9C0.5 8.44771 0.947693 8 1.5 8H13.5C14.0523 8 14.5 7.55228 14.5 7Z" fill="#F46161"/>
<path d="M5.5 12C4.94769 12 4.5 12.4477 4.5 13C4.5 13.5523 4.05228 14 3.5 14H1.5C0.947693 14 0.5 14.4477 0.5 15C0.5 15.5523 0.947693 16 1.5 16H3.5C4.05228 16 4.5 16.4477 4.5 17C4.5 17.5523 4.94769 18 5.5 18C6.05231 18 6.5 17.5523 6.5 17V13C6.5 12.4477 6.05231 12 5.5 12Z" fill="#F46161"/>
<path d="M7.5 15C7.5 14.4477 7.94769 14 8.5 14H19.5C20.0523 14 20.5 14.4477 20.5 15C20.5 15.5523 20.0523 16 19.5 16H8.5C7.94769 16 7.5 15.5523 7.5 15Z" fill="#F46161"/>
<path d="M18.5 8C17.9477 8 17.5 8.44771 17.5 9C17.5 9.55229 17.9477 10 18.5 10H19.5C20.0523 10 20.5 9.55229 20.5 9C20.5 8.44771 20.0523 8 19.5 8H18.5Z" fill="#F46161"/>
<path d="M12.5 3C12.5 2.44771 12.9477 2 13.5 2H19.5C20.0523 2 20.5 2.44771 20.5 3C20.5 3.55229 20.0523 4 19.5 4H13.5C12.9477 4 12.5 3.55229 12.5 3Z" fill="#F46161"/>
</svg>
