<svg width="18" height="21" viewBox="0 0 18 21" fill="none" xmlns="http://www.w3.org/2000/svg">
<path fill-rule="evenodd" clip-rule="evenodd" d="M14 5.5C14 8.26142 11.7614 10.5 9.00001 10.5C6.23858 10.5 4.00001 8.26142 4.00001 5.5C4.00001 2.73858 6.23858 0.5 9.00001 0.5C11.7614 0.5 14 2.73858 14 5.5ZM12 5.5C12 7.15685 10.6569 8.5 9.00001 8.5C7.34315 8.5 6.00001 7.15685 6.00001 5.5C6.00001 3.84315 7.34315 2.5 9.00001 2.5C10.6569 2.5 12 3.84315 12 5.5Z" fill="#282828"/>
<path d="M17 20.5C16.4477 20.5 16.0075 20.0497 15.9295 19.503C15.4456 16.1092 12.5275 13.5 9.00001 13.5C5.47251 13.5 2.55442 16.1092 2.07047 19.503C1.9925 20.0497 1.55229 20.5 1.00001 20.5C0.447722 20.5 -0.00582534 20.0506 0.0547589 19.5016C0.551474 15.0009 4.3669 11.5 9.00001 11.5C13.6331 11.5 17.4485 15.0009 17.9453 19.5016C18.0058 20.0506 17.5523 20.5 17 20.5Z" fill="#282828"/>
</svg>
