<svg width="21" height="21" viewBox="0 0 21 21" fill="none" xmlns="http://www.w3.org/2000/svg">
<path fill-rule="evenodd" clip-rule="evenodd" d="M15.9266 18.901C18.6788 17.1195 20.5 14.0225 20.5 10.5C20.5 4.97715 16.0228 0.5 10.5 0.5C4.97715 0.5 0.5 4.97715 0.5 10.5C0.5 13.9518 2.24889 16.9951 4.90891 18.7922C4.96337 18.829 5.01822 18.8652 5.07344 18.901C6.6364 19.9126 8.49961 20.5 10.5 20.5C12.5004 20.5 14.3636 19.9126 15.9266 18.901ZM15.7927 16.4991C14.3823 17.7444 12.5294 18.5 10.5 18.5C8.4706 18.5 6.6177 17.7444 5.2073 16.4991C5.86054 14.1911 7.98279 12.5 10.5 12.5C13.0172 12.5 15.1395 14.1911 15.7927 16.4991ZM10.5 11.5C12.1569 11.5 13.5 10.1569 13.5 8.5C13.5 6.84314 12.1569 5.5 10.5 5.5C8.84314 5.5 7.5 6.84314 7.5 8.5C7.5 10.1569 8.84314 11.5 10.5 11.5Z" fill="#282828"/>
</svg>
