<svg width="20" height="17" viewBox="0 0 20 17" fill="none" xmlns="http://www.w3.org/2000/svg">
<path fill-rule="evenodd" clip-rule="evenodd" d="M11.7812 5.87594L10 3.20414L8.2188 5.87594C7.29975 7.25453 5.43714 7.62705 4.05855 6.70799L2.9081 5.94102L3.63961 11.5986H16.3604L17.0919 5.94102L15.9415 6.70799C14.5629 7.62705 12.7003 7.25453 11.7812 5.87594ZM9.16795 0.846667C9.56378 0.252934 10.4362 0.252934 10.8321 0.846667L13.4453 4.76654C13.7517 5.22607 14.3725 5.35024 14.8321 5.04389L17.9913 2.93776C18.7325 2.44357 19.7013 3.09232 19.5265 3.96592L18.1608 12.7947C18.0673 13.2621 17.6569 13.5986 17.1802 13.5986H2.81981C2.34313 13.5986 1.93271 13.2621 1.83923 12.7947L0.47347 3.96592C0.298749 3.09232 1.26747 2.44357 2.00875 2.93776L5.16795 5.04389C5.62748 5.35024 6.24835 5.22607 6.5547 4.76654L9.16795 0.846667ZM2.99966 14.5986C2.44738 14.5986 1.99966 15.0463 1.99966 15.5986C1.99966 16.1509 2.44738 16.5986 2.99966 16.5986H16.9997C17.5519 16.5986 17.9997 16.1509 17.9997 15.5986C17.9997 15.0463 17.5519 14.5986 16.9997 14.5986H2.99966Z" fill="#282828"/>
</svg>
