<svg width="24" height="24" viewBox="0 0 24 24" fill="none" xmlns="http://www.w3.org/2000/svg">
<path fill-rule="evenodd" clip-rule="evenodd" d="M6.80391 15L6.8039 14.9999C6.13923 13.8487 5.14728 12.9992 4.01556 12.504C4.00525 12.3375 4 12.1695 4 12C4 11.8304 4.00524 11.6624 4.01555 11.4959C5.14728 11.0006 6.13922 10.1512 6.80388 8.99994C7.4687 7.84846 7.70832 6.56439 7.57115 5.33648C7.85002 5.15067 8.14103 4.98202 8.44265 4.83197C9.43765 5.56519 10.6699 5.99999 12 5.99999C13.3301 5.99999 14.5623 5.56519 15.5573 4.83197C15.859 4.98203 16.15 5.15069 16.4289 5.33651C16.2917 6.56444 16.5314 7.84847 17.1962 8.99992C17.8608 10.1512 18.8528 11.0006 19.9844 11.4958C19.9948 11.6623 20 11.8304 20 12C20 12.1695 19.9948 12.3375 19.9844 12.504C18.8528 12.9992 17.8608 13.8487 17.1962 14.9999C16.5313 16.1514 16.2917 17.4355 16.4289 18.6634C16.15 18.8493 15.859 19.0179 15.5573 19.168C14.5623 18.4348 13.3301 18 12 18C10.6699 18 9.43765 18.4348 8.44266 19.168C8.14103 19.018 7.85003 18.8493 7.57117 18.6635C7.70837 17.4355 7.46868 16.1514 6.80391 15ZM21.1164 9.79105C20.2252 9.49147 19.4353 8.87823 18.9282 7.99993C18.4213 7.12185 18.285 6.13146 18.471 5.21001C18.5535 4.80132 18.4629 4.35752 18.1338 4.10156C17.4189 3.54556 16.6265 3.0845 15.7756 2.7373C15.3892 2.57965 14.9592 2.72335 14.6463 2.99953C13.9411 3.62217 13.0147 3.99999 12 3.99999C10.9853 3.99999 10.0589 3.62217 9.35366 2.99953C9.04085 2.72335 8.61078 2.57965 8.22441 2.7373C7.37349 3.0845 6.58112 3.54554 5.86622 4.1015C5.53708 4.35746 5.44647 4.80127 5.52897 5.20997C5.71498 6.13144 5.5788 7.12186 5.07184 7.99993C4.56476 8.87824 3.77486 9.49148 2.88358 9.79106C2.4877 9.92412 2.14812 10.2252 2.09181 10.639C2.03126 11.084 2 11.5384 2 12C2 12.4615 2.03128 12.9158 2.09182 13.3608C2.14813 13.7746 2.48772 14.0758 2.88363 14.2088C3.77489 14.5084 4.56477 15.1216 5.07184 15.9999C5.5788 16.8781 5.71502 17.8685 5.529 18.7899C5.44649 19.1987 5.53708 19.6425 5.86622 19.8984C6.58112 20.4544 7.37349 20.9155 8.22442 21.2627C8.61078 21.4203 9.04085 21.2766 9.35366 21.0005C10.0589 20.3778 10.9853 20 12 20C13.0147 20 13.9411 20.3778 14.6463 21.0005C14.9592 21.2766 15.3892 21.4203 15.7756 21.2627C16.6265 20.9155 17.419 20.4544 18.1339 19.8984C18.463 19.6424 18.5536 19.1986 18.4711 18.7899C18.2851 17.8684 18.4213 16.878 18.9282 15.9999C19.4353 15.1217 20.2252 14.5084 21.1164 14.2088C21.5123 14.0758 21.8519 13.7746 21.9082 13.3608C21.9687 12.9158 22 12.4615 22 12C22 11.5384 21.9687 11.084 21.9082 10.639C21.8519 10.2252 21.5123 9.92411 21.1164 9.79105ZM14 11.9999C14 13.1045 13.1046 13.9999 12 13.9999C10.8954 13.9999 10 13.1045 10 11.9999C10 10.8953 10.8954 9.99991 12 9.99991C13.1046 9.99991 14 10.8953 14 11.9999ZM16 11.9999C16 14.209 14.2091 15.9999 12 15.9999C9.79086 15.9999 8 14.209 8 11.9999C8 9.79077 9.79086 7.99991 12 7.99991C14.2091 7.99991 16 9.79077 16 11.9999Z" fill="#646464"/>
</svg>
