<svg width="24" height="24" viewBox="0 0 24 24" fill="none" xmlns="http://www.w3.org/2000/svg">
<path d="M5 2C4.44775 2 4 2.44769 4 3V21C4 21.5523 4.44775 22 5 22H17C17.5522 22 18 21.5523 18 21V19C18 18.4477 17.5522 18 17 18C16.4478 18 16 18.4477 16 19V20H6V4H16V5C16 5.55231 16.4478 6 17 6C17.5522 6 18 5.55231 18 5V3C18 2.44769 17.5522 2 17 2H5Z" fill="#646464"/>
<path d="M14.0503 7.05023C14.4408 6.65973 15.074 6.65967 15.4645 7.05023L19.7072 11.2928C19.8083 11.3941 19.8833 11.5116 19.9321 11.637C19.976 11.7495 20 11.8719 20 12C20 12.1421 19.9703 12.2772 19.917 12.3996C19.8766 12.4923 19.8215 12.5801 19.7516 12.6596C19.7357 12.6777 19.7192 12.6952 19.7021 12.7121L15.4645 16.9497C15.074 17.3402 14.4408 17.3403 14.0503 16.9497C13.6597 16.5591 13.6598 15.926 14.0503 15.5355L16.5857 13H9C8.44775 13 8 12.5523 8 12C8 11.4477 8.44775 11 9 11H16.5858L14.0503 8.46442C13.6597 8.07391 13.6598 7.44073 14.0503 7.05023Z" fill="#646464"/>
</svg>
