<svg width="24" height="24" viewBox="0 0 24 24" fill="none" xmlns="http://www.w3.org/2000/svg">
<path fill-rule="evenodd" clip-rule="evenodd" d="M16.8999 6C16.4367 3.71776 14.4189 2 11.9999 2C9.58099 2 7.56323 3.71776 7.09996 6H5.87887C4.82274 6 3.94865 6.82117 3.88277 7.87524L3.13277 19.8752C3.0608 21.0266 3.97523 22 5.12887 22H18.8711C20.0247 22 20.9391 21.0266 20.8672 19.8752L20.1172 7.87524C20.0513 6.82117 19.1772 6 18.1211 6H16.8999ZM14.8292 6C14.4174 4.83481 13.3062 4 11.9999 4C10.6937 4 9.58249 4.83481 9.17065 6H14.8292ZM5.87887 8H6.99995V10C6.99995 10.5523 7.44766 11 7.99995 11C8.55223 11 8.99995 10.5523 8.99995 10V8H14.9999V10C14.9999 10.5523 15.4477 11 15.9999 11C16.5522 11 16.9999 10.5523 16.9999 10V8H18.1211L18.8711 20H5.12887L5.87887 8Z" fill="#646464"/>
</svg>
