<svg width="24" height="24" viewBox="0 0 24 24" fill="none" xmlns="http://www.w3.org/2000/svg">
<path fill-rule="evenodd" clip-rule="evenodd" d="M13.7812 9.37594L12 6.70414L10.2188 9.37594C9.29972 10.7545 7.43711 11.127 6.05852 10.208L4.90807 9.44102L5.63958 15.0986H18.3604L19.0919 9.44102L17.9414 10.208C16.5628 11.1271 14.7002 10.7545 13.7812 9.37594ZM11.1679 4.34667C11.5637 3.75293 12.4362 3.75293 12.832 4.34667L15.4453 8.26654C15.7516 8.72607 16.3725 8.85024 16.832 8.54389L19.9912 6.43776C20.7325 5.94357 21.7012 6.59232 21.5265 7.46592L20.1607 16.2947C20.0673 16.7621 19.6569 17.0986 19.1802 17.0986H4.81978C4.3431 17.0986 3.93268 16.7621 3.8392 16.2947L2.47344 7.46592C2.29872 6.59232 3.26744 5.94357 4.00872 6.43776L7.16792 8.54389C7.62745 8.85024 8.24832 8.72607 8.55467 8.26654L11.1679 4.34667ZM4.99963 18.0986C4.44735 18.0986 3.99963 18.5463 3.99963 19.0986C3.99963 19.6509 4.44735 20.0986 4.99963 20.0986H18.9996C19.5519 20.0986 19.9996 19.6509 19.9996 19.0986C19.9996 18.5463 19.5519 18.0986 18.9996 18.0986H4.99963Z" fill="#646464"/>
</svg>
