<svg width="24" height="24" viewBox="0 0 24 24" fill="none" xmlns="http://www.w3.org/2000/svg">
<path d="M12 13C13.6569 13 15 11.6569 15 10C15 8.34314 13.6569 7 12 7C10.3431 7 9 8.34314 9 10C9 11.6569 10.3431 13 12 13Z" fill="#646464"/>
<path fill-rule="evenodd" clip-rule="evenodd" d="M6.57343 20.4009C3.82108 18.6195 2 15.5226 2 12C2 6.47717 6.47714 2 12 2C17.5229 2 22 6.47717 22 12C22 15.6243 20.0718 18.7983 17.1854 20.5522C15.6734 21.4709 13.8985 22 12 22C9.99973 22 8.13632 21.4125 6.57343 20.4009ZM6.70731 17.9991C7.36053 15.6911 9.48279 14 12 14C14.5172 14 16.6395 15.6911 17.2927 17.9991C18.9529 16.5332 20 14.3889 20 12C20 7.58173 16.4183 4 12 4C7.58173 4 4 7.58173 4 12C4 14.3889 5.04709 16.5332 6.70731 17.9991Z" fill="#646464"/>
</svg>
